<?xml version="1.0" encoding="UTF-8"?>
<svg width="204px" height="176px" viewBox="0 0 204 176" version="1.1" xmlns="http://www.w3.org/2000/svg" xmlns:xlink="http://www.w3.org/1999/xlink">
    <title>980264E3-E5A7-4AF4-8657-49207D5D9B13</title>
    <g id="Training-Theming-Courses" stroke="none" stroke-width="1" fill="none" fill-rule="evenodd">
        <g id="ACME-Homepage" transform="translate(-1276.000000, -2044.000000)" fill="#09B999" fill-rule="nonzero">
            <g id="Footer-#7" transform="translate(0.000000, 1913.000000)">
                <g id="logo-copy-2" transform="translate(1264.000000, 124.000000)">
                    <g transform="translate(12.000000, 7.000000)" id="noun_trees_1371209">
                        <path d="M203.491412,74.6430126 C206.705305,57.3424784 194.354548,40.8283321 175.845659,37.4477346 C178.865151,20.0166194 166.125592,3.47635692 147.284339,0.472993471 C145.312106,0.159599024 143.302247,0 141.320607,0 C124.288541,0 109.830725,11.2909055 106.936654,26.8445558 C106.682678,28.208402 106.522767,29.6012662 106.463192,31.0028359 C94.9433449,35.0711601 86.6248486,44.3569215 84.5177889,55.6855504 C83.2322316,62.5889336 84.4237238,69.7070501 87.8727799,75.9227066 C85.9130889,79.1408033 84.574228,82.6229638 83.8906878,86.2937413 C80.9746676,101.966365 90.8609166,117.247247 107.005635,122.339906 C114.132639,133.543758 126.684068,140.867902 140.55868,142.05764 L140.55868,170.196399 L42.4643885,170.196399 L42.4643885,153.946317 C56.8971205,152.727561 68.3918839,141.488887 68.5831497,127.830113 C68.5988272,126.741938 68.5392526,125.647959 68.4106969,124.565587 C73.6658042,121.289455 77.230874,116.222911 78.3157589,110.390292 C79.3692888,104.723076 77.9771243,99.0152345 74.3932415,94.3172195 C71.1291802,90.0399657 66.4039734,87.0656203 60.9670067,85.8352569 C61.6160564,80.5800963 60.1737238,75.3568555 56.8500879,71.0041549 C53.2662051,66.3061399 47.9201681,63.1838027 41.7965258,62.2087977 C40.482749,61.9998681 39.1470236,61.8925015 37.8238403,61.8925015 C26.4827167,61.8925015 16.8535791,69.4110664 14.9221077,79.7733958 C14.7966875,80.4553189 14.7057578,81.1488492 14.6524542,81.8452813 C7.34359081,84.6745367 2.09475452,90.7102816 0.73394511,98.0257205 C-0.087557344,102.439359 0.608524888,106.977775 2.69363608,110.996768 C1.54604105,112.996109 0.755893649,115.149245 0.338871411,117.406846 C-1.58005799,127.711139 4.81637334,137.765877 15.3297234,141.285761 C19.8824775,148.200752 27.6020922,152.7914 36.1933774,153.827343 L36.1933774,170.196399 L5.91380028,172.316571 L5.91380028,176 L198.0858,176 L198.0858,172.316571 C197.486135,172.229614 193.177495,172.020323 185.159881,171.688701 C177.142266,171.357078 164.364491,170.859644 146.826555,170.196399 L146.826555,142.130185 C169.483718,141.024599 187.7888,123.68344 188.086673,102.459672 C188.118028,100.466135 187.986337,98.4667942 187.694735,96.4761591 C196.088483,91.5953307 201.798239,83.7430588 203.491412,74.6430126 Z M20.1928926,137.481501 L19.575198,136.445558 L18.3492153,136.100244 C10.1530038,133.822331 5.06721378,126.210908 6.51895285,118.393458 C6.90462003,116.327376 7.71044496,114.386071 8.92388561,112.624678 L9.95233143,111.133153 L8.98659572,109.603904 C6.97360115,106.411924 6.23675735,102.654092 6.91402655,99.0181363 C8.00204698,93.1652048 12.5046329,88.4381719 18.6596303,86.676779 L20.9266009,86.0267757 L20.8670262,83.8301128 C20.8388067,82.79417 20.9203298,81.7611291 21.1053247,80.7629097 C22.5163022,73.1950142 29.5461056,67.701906 37.8269758,67.701906 C38.7927115,67.701906 39.7709892,67.7802546 40.7335894,67.93405 C45.2048203,68.6478929 49.1116602,70.928708 51.7298074,74.3586362 C54.3479545,77.7885643 55.3669938,81.9584515 54.5956595,86.0935171 C54.5078653,86.5636088 54.3887161,87.0220933 54.2570249,87.4747741 L53.4073028,90.7886302 L57.0852509,91.1165337 C57.4803246,91.1513553 57.8722628,91.1832751 58.276743,91.2471147 C62.7479739,91.9609576 66.6516783,94.2417727 69.2698254,97.6746027 C71.8879726,101.104531 72.9070119,105.274418 72.1356775,109.415287 C71.2514649,114.168436 68.1065529,118.225153 63.5036307,120.549495 L61.5031782,121.559322 L61.9233359,123.634109 C62.1992604,124.995054 62.3309516,126.382114 62.3121386,127.766273 C62.1647698,138.262085 53.476284,146.929763 42.4643885,148.119501 L42.4643885,128.424982 L53.4668775,125.563807 L51.770569,119.974939 L42.4643885,122.395041 L42.4643885,103.631999 L36.1933774,103.631999 L36.1933774,111.211502 L28.3232584,105.811251 L24.5920068,110.474444 L36.1965129,118.431181 L36.1965129,147.965706 C29.486531,146.92396 23.538477,143.102288 20.1928926,137.481501 Z M182.756313,92.4368529 L180.752725,93.4495812 L181.176019,95.5243685 C181.633802,97.7906747 181.853288,100.097606 181.815662,102.384225 C181.564821,120.450834 166.069153,135.235507 146.826555,136.329486 L146.826555,126.887028 L163.946416,118.051045 L160.889298,112.984502 L146.826555,120.244806 L146.826555,86.1921783 L165.532981,81.3229572 L163.836673,75.7369914 L146.826555,80.1651388 L146.826555,64.240058 L140.555544,64.240058 L140.555544,72.7684495 L126.931772,63.4304557 L123.200521,68.093649 L140.555544,79.9939326 L140.555544,109.966629 L122.595368,98.41166 L126.38933,84.7180637 L120.31272,83.2758689 L117.101963,94.8743652 L111.517627,91.2819363 L107.93688,96.0466926 L140.552409,117.038317 L140.552409,136.181494 C128.555964,134.974345 117.76669,128.456902 111.865668,118.532744 L111.251109,117.496801 L110.021991,117.154389 C96.1944116,113.3037 87.6156684,100.460331 90.0644982,87.2890589 C90.7135479,83.8039966 92.0806283,80.5278639 94.1218424,77.5535184 L95.1471527,76.061993 L94.1845525,74.535646 C90.7888,69.155708 89.5471398,62.8123722 90.6884638,56.6808679 C92.5227346,46.806041 100.113794,38.8289916 110.495452,35.857548 L112.765558,35.2075447 L112.702848,33.0108818 C112.655816,31.2610961 112.790642,29.5229176 113.107329,27.8369716 C115.480906,15.0748533 127.342524,5.81230627 141.311201,5.81230627 C142.941664,5.81230627 144.59094,5.94288729 146.211996,6.20114753 C161.782917,8.6821869 172.274318,22.4251138 169.593461,36.8412583 C169.446092,37.630548 169.248555,38.3995252 169.025935,39.1597969 L168.144857,42.473653 L171.825941,42.8015564 C172.525159,42.8624942 173.221241,42.923432 173.923594,43.0337005 C189.49765,45.5147398 199.989052,59.2605685 197.308195,73.6709095 C195.818829,81.6798787 190.513554,88.5252259 182.756313,92.4368529 Z" id="Shape"></path>
                    </g>
                </g>
            </g>
        </g>
    </g>
</svg>